<svg width="150" height="80" viewBox="0 0 150 80" fill="none" xmlns="http://www.w3.org/2000/svg">
<path fill-rule="evenodd" clip-rule="evenodd" d="M18.1036 53.4221H6.47695L5.43704 55.918H26.5218L25.4819 53.4221H18.1036ZM59.1442 33.9122C56.7672 33.9122 54.975 35.6751 54.2716 37.9329H54.2123C54.2123 37.9329 54.2716 37.4677 54.2716 36.8633V35.8928C54.2716 34.6352 53.6377 34.0903 52.2908 34.0903H52.2119H48.2404L48.7851 36.3388H50.7163C51.2315 36.3388 51.4096 36.5268 51.4096 37.0418V47.1635H49.0923V47.1732H49.0822L48.3494 49.5004H49.0923H51.4193H52.5385H54.3807V47.2226H54.3608V43.1326C54.3608 40.1217 55.7672 36.6158 59.0552 36.6158C59.352 36.6158 59.59 36.715 59.7385 36.7941L60.5705 34.0408C60.4712 34.031 59.5206 33.9122 59.1442 33.9122ZM76.3668 47.1732V47.1635H75.6041C74.8119 47.1635 74.4453 47.0344 74.1383 46.5493L71.5933 42.1817C70.979 41.1518 70.4839 40.914 70.4541 40.914L70.5235 40.8249L74.2771 36.4377L74.356 36.3388H74.4653H75.4157H76.4062L76.951 34.0903H73.0885H69.3649H68.8001L69.3153 36.3388H71.3552L71.3455 36.3485L71.395 36.3388L68.2952 40.0028H66.0471V27.9998H63.9672H63.1155H59.9465L60.521 30.4061H63.1155V47.1635H62.8482H60.5111V47.1732L59.7682 49.5004H60.6794H62.8482H63.9672H66.0471V47.2226V46.5989V42.2509H67.2653C67.9288 42.2509 68.3546 42.3104 68.7113 42.8848L71.7615 48.0943C72.3655 49.1836 72.8212 49.461 74.0293 49.5004H74.267H76.5744H77.1096L76.3768 47.1732H76.3668ZM9.00227 41.736L5.51616 27.9998H0L0.564491 30.3369H3.18897L7.17988 46.074L9.00227 41.736ZM31.9587 27.9998H26.4326L22.9566 41.736L24.7786 46.074L28.7699 30.3369H31.3942L31.9587 27.9998ZM119.21 36.4969V43.9545C119.21 48.0347 120.943 49.8669 124.26 49.8669C128.103 49.8669 129.836 47.0344 130.143 46.2125H130.203C130.203 46.2125 130.143 46.6085 130.143 47.1233V47.7971C130.143 48.8863 130.748 49.4905 132.074 49.5004H132.094H132.996H135.283H136.066L135.333 47.1732H135.323V47.1635H135.283H133.679C133.233 47.1635 133.005 47.0146 133.005 46.5787V34.0903H131.064H130.846H129.945H127.459H127.212H126.875L127.43 36.4177V36.4277L127.45 36.4969H130.054V41.1915C130.054 44.2319 128.133 47.1831 125.053 47.1831C122.587 47.1831 122.161 45.4796 122.161 43.3502V34.0903H120.23H120.012H119.11H116.813H116.169H116.04L116.615 36.4969H119.21ZM79.3871 27.9998H79.318L79.8923 30.4061H82.4869V47.1635H82.2495H79.9121V47.1732H79.9022L79.1693 49.5004H80.0509H82.2495H83.3688H85.3987V45.2121H85.4088V42.2806C85.4088 38.9928 87.5379 36.4377 90.5584 36.4377C93.0246 36.4377 93.4803 38.1409 93.4803 40.3V49.5004H95.4111H96.5303H98.8379H99.6106L98.8677 47.1732H98.8579V47.1635H96.5303H96.4314V39.6365C96.4314 35.7047 94.7577 33.724 91.133 33.724C88.0628 33.724 86.0523 35.7643 85.379 37.2597H85.3195C85.3195 37.2597 85.4088 36.715 85.4088 35.9821V27.9998H83.3587H83.2892H82.2495H79.9022H79.3871ZM109.593 40.0328C107.028 40.0328 100.611 40.3692 100.611 45.2121C100.611 48.3715 103.166 49.8669 105.721 49.8669C109.464 49.8669 110.812 46.6085 110.812 46.6085H110.871C110.871 46.6085 110.752 47.0047 110.752 47.609V47.8268C110.752 48.7678 111.237 49.4116 112.426 49.4905V49.5004H112.663H113.406H115.743H116.486L115.743 47.1732V47.1635H115.733H114.189C113.743 47.1635 113.515 47.0047 113.515 46.5493V39.6663C113.515 35.7643 111.445 33.724 107.523 33.724C103.928 33.724 101.69 35.5462 101.69 35.5462L102.502 37.8935C102.502 37.8935 104.869 36.081 107.276 36.1605C109.167 36.2196 110.564 37.012 110.564 39.4482V40.0328H109.593ZM110.593 41.944V42.5877C110.593 44.905 108.979 47.5793 106.365 47.5793C104.592 47.5793 103.592 46.3312 103.592 44.9648C103.592 42.0133 108.435 41.944 109.831 41.944H110.593ZM143.82 49.8669C147.326 49.8669 150 48.2523 150 45.3313C150 42.4691 147.296 41.4587 144.919 40.6664C143.058 40.0328 141.354 39.4186 141.354 37.9627C141.354 36.715 142.632 36.1009 144.098 36.1009C145.583 36.1009 146.811 36.7447 146.811 37.6854V38.6857L149.396 39.2304V36.8338C149.396 34.5757 146.227 33.724 144.068 33.724C141.384 33.724 138.373 34.9422 138.373 37.9926C138.373 40.7953 140.898 41.8251 143.186 42.6769C145.316 43.4396 147.019 43.9249 147.019 45.4796C147.019 46.757 145.652 47.4601 143.909 47.4601C142.206 47.4601 140.384 46.8563 140.384 45.5389V44.5386L137.789 43.8258V46.1827C137.789 48.6189 141.017 49.8669 143.82 49.8669ZM38.1684 33.724C33.5632 33.724 29.8494 37.1112 29.8494 41.7658C29.8494 46.4601 33.5632 49.8669 38.1684 49.8669C42.7638 49.8669 46.4777 46.4601 46.4777 41.7658C46.4777 37.1112 42.7638 33.724 38.1684 33.724ZM38.1684 47.3118C35.237 47.3118 32.86 44.9945 32.86 41.7658C32.86 38.5669 35.237 36.289 38.1684 36.289C41.0602 36.289 43.4669 38.5669 43.4669 41.7658C43.4669 44.9945 41.0602 47.3118 38.1684 47.3118ZM8.13066 49.5004H11.2701L11.3099 49.3818L15.9843 38.2896L20.6587 49.3818L20.6885 49.5004H23.8378L22.0157 45.1726L17.2026 33.7141H15.9843H15.9745H14.7563L9.94308 45.1726L8.13066 49.5004Z" fill="white"/>
</svg>
