<svg width="150" height="80" viewBox="0 0 150 80" fill="none" xmlns="http://www.w3.org/2000/svg">
<path fill-rule="evenodd" clip-rule="evenodd" d="M18.1036 51.4221H6.47695L5.43704 53.918H26.5218L25.4819 51.4221H18.1036ZM59.1442 31.9122C56.7672 31.9122 54.975 33.6751 54.2716 35.9329H54.2123C54.2123 35.9329 54.2716 35.4677 54.2716 34.8633V33.8928C54.2716 32.6352 53.6377 32.0903 52.2908 32.0903H52.2119H48.2404L48.7851 34.3388H50.7163C51.2315 34.3388 51.4096 34.5268 51.4096 35.0418V45.1635H49.0923V45.1732H49.0822L48.3494 47.5004H49.0923H51.4193H52.5385H54.3807V45.2226H54.3608V41.1326C54.3608 38.1217 55.7672 34.6158 59.0552 34.6158C59.352 34.6158 59.59 34.715 59.7385 34.7941L60.5705 32.0408C60.4712 32.031 59.5206 31.9122 59.1442 31.9122ZM76.3668 45.1732V45.1635H75.6041C74.8119 45.1635 74.4453 45.0344 74.1383 44.5493L71.5933 40.1817C70.979 39.1518 70.4839 38.914 70.4541 38.914L70.5235 38.8249L74.2771 34.4377L74.356 34.3388H74.4653H75.4157H76.4062L76.951 32.0903H73.0885H69.3649H68.8001L69.3153 34.3388H71.3552L71.3455 34.3485L71.395 34.3388L68.2952 38.0028H66.0471V25.9998H63.9672H63.1155H59.9465L60.521 28.4061H63.1155V45.1635H62.8482H60.5111V45.1732L59.7682 47.5004H60.6794H62.8482H63.9672H66.0471V45.2226V44.5989V40.2509H67.2653C67.9288 40.2509 68.3546 40.3104 68.7113 40.8848L71.7615 46.0943C72.3655 47.1836 72.8212 47.461 74.0293 47.5004H74.267H76.5744H77.1096L76.3768 45.1732H76.3668ZM9.00227 39.736L5.51616 25.9998H0L0.564491 28.3369H3.18897L7.17988 44.074L9.00227 39.736ZM31.9587 25.9998H26.4326L22.9566 39.736L24.7786 44.074L28.7699 28.3369H31.3942L31.9587 25.9998ZM119.21 34.4969V41.9545C119.21 46.0347 120.943 47.8669 124.26 47.8669C128.103 47.8669 129.836 45.0344 130.143 44.2125H130.203C130.203 44.2125 130.143 44.6085 130.143 45.1233V45.7971C130.143 46.8863 130.748 47.4905 132.074 47.5004H132.094H132.996H135.283H136.066L135.333 45.1732H135.323V45.1635H135.283H133.679C133.233 45.1635 133.005 45.0146 133.005 44.5787V32.0903H131.064H130.846H129.945H127.459H127.212H126.875L127.43 34.4177V34.4277L127.45 34.4969H130.054V39.1915C130.054 42.2319 128.133 45.1831 125.053 45.1831C122.587 45.1831 122.161 43.4796 122.161 41.3502V32.0903H120.23H120.012H119.11H116.813H116.169H116.04L116.615 34.4969H119.21ZM79.3871 25.9998H79.318L79.8923 28.4061H82.4869V45.1635H82.2495H79.9121V45.1732H79.9022L79.1693 47.5004H80.0509H82.2495H83.3688H85.3987V43.2121H85.4088V40.2806C85.4088 36.9928 87.5379 34.4377 90.5584 34.4377C93.0246 34.4377 93.4803 36.1409 93.4803 38.3V47.5004H95.4111H96.5303H98.8379H99.6106L98.8677 45.1732H98.8579V45.1635H96.5303H96.4314V37.6365C96.4314 33.7047 94.7577 31.724 91.133 31.724C88.0628 31.724 86.0523 33.7643 85.379 35.2597H85.3195C85.3195 35.2597 85.4088 34.715 85.4088 33.9821V25.9998H83.3587H83.2892H82.2495H79.9022H79.3871ZM109.593 38.0328C107.028 38.0328 100.611 38.3692 100.611 43.2121C100.611 46.3715 103.166 47.8669 105.721 47.8669C109.464 47.8669 110.812 44.6085 110.812 44.6085H110.871C110.871 44.6085 110.752 45.0047 110.752 45.609V45.8268C110.752 46.7678 111.237 47.4116 112.426 47.4905V47.5004H112.663H113.406H115.743H116.486L115.743 45.1732V45.1635H115.733H114.189C113.743 45.1635 113.515 45.0047 113.515 44.5493V37.6663C113.515 33.7643 111.445 31.724 107.523 31.724C103.928 31.724 101.69 33.5462 101.69 33.5462L102.502 35.8935C102.502 35.8935 104.869 34.081 107.276 34.1605C109.167 34.2196 110.564 35.012 110.564 37.4482V38.0328H109.593ZM110.593 39.944V40.5877C110.593 42.905 108.979 45.5793 106.365 45.5793C104.592 45.5793 103.592 44.3312 103.592 42.9648C103.592 40.0133 108.435 39.944 109.831 39.944H110.593ZM143.82 47.8669C147.326 47.8669 150 46.2523 150 43.3313C150 40.4691 147.296 39.4587 144.919 38.6664C143.058 38.0328 141.354 37.4186 141.354 35.9627C141.354 34.715 142.632 34.1009 144.098 34.1009C145.583 34.1009 146.811 34.7447 146.811 35.6854V36.6857L149.396 37.2304V34.8338C149.396 32.5757 146.227 31.724 144.068 31.724C141.384 31.724 138.373 32.9422 138.373 35.9926C138.373 38.7953 140.898 39.8251 143.186 40.6769C145.316 41.4396 147.019 41.9249 147.019 43.4796C147.019 44.757 145.652 45.4601 143.909 45.4601C142.206 45.4601 140.384 44.8563 140.384 43.5389V42.5386L137.789 41.8258V44.1827C137.789 46.6189 141.017 47.8669 143.82 47.8669ZM38.1684 31.724C33.5632 31.724 29.8494 35.1112 29.8494 39.7658C29.8494 44.4601 33.5632 47.8669 38.1684 47.8669C42.7638 47.8669 46.4777 44.4601 46.4777 39.7658C46.4777 35.1112 42.7638 31.724 38.1684 31.724ZM38.1684 45.3118C35.237 45.3118 32.86 42.9945 32.86 39.7658C32.86 36.5669 35.237 34.289 38.1684 34.289C41.0602 34.289 43.4669 36.5669 43.4669 39.7658C43.4669 42.9945 41.0602 45.3118 38.1684 45.3118ZM8.13066 47.5004H11.2701L11.3099 47.3818L15.9843 36.2896L20.6587 47.3818L20.6885 47.5004H23.8378L22.0157 43.1726L17.2026 31.7141H15.9843H15.9745H14.7563L9.94308 43.1726L8.13066 47.5004Z" fill="#070808"/>
</svg>
